<!--?xml version="1.0" encoding="utf-8"?-->
<!-- Generator: Adobe Illustrator 15.1.0, SVG Export Plug-In . SVG Version: 6.00 Build 0)  -->

<svg version="1.1" id="_x32_" xmlns="http://www.w3.org/2000/svg" xmlns:xlink="http://www.w3.org/1999/xlink" x="0px" y="0px" width="512px" height="512px" viewBox="0 0 512 512" style="width: 256px; height: 256px; opacity: 1;" xml:space="preserve">
<style type="text/css">

	.st0{fill:#4B4B4B;}

</style>
<g>
	<path class="st0" d="M418.336,193.866C397.758,111.819,318.07,80.96,311.102,73.444l19.594-71.328c0,0-24.469-7.906-58.797,6.828
		c-43.641,18.734-67.953-5.156-67.953-5.156l21.547,70.781c-6.766,7.688-91.516,42.141-106.875,123.219
		c-7.797,41.094,3.422,92.531,39.25,127.516c12.953-4.984,29.078-8.219,49.969-8.219h85.594c19.844,0,35.984,16.141,35.984,35.984
		c0,0.906-0.125,1.797-0.188,2.688C407.258,328.663,432.555,250.429,418.336,193.866z M319.945,209.038h-34.344l-3.688,5.734v13.75
		h38.031v0.063v16.672v2.797h-38.031v29.469h-23.641v-29.469h-38.031v-2.797v-16.672v-0.063h38.031v-13.719l-3.688-5.766h-34.344
		v-16.672h23.609l-20.063-31.234h20.016l26.266,40.906l26.313-40.906h20.031l-20.063,31.234h23.594V209.038z" style="fill: rgb(237, 241, 246);"></path>
	<path class="st0" d="M234.57,374.46c14.281,0,58.859,0,58.859,0c11.828,0,21.406-9.578,21.406-21.391
		c0-11.828-9.578-21.406-21.406-21.406c-10.703,0-32.094,0-85.594,0c-53.516,0-70.453,22.297-89.188,41.016l-33.984,29.688
		c-2.203,1.922-3.469,4.688-3.469,7.625v98.641c0,1.313,0.766,2.516,1.969,3.063s2.609,0.359,3.609-0.516l65.672-56.297
		c2.313-1.969,5.406-2.797,8.391-2.266l102.344,18.609c7.141,1.297,14.484-0.344,20.422-4.531c0,0,130.625-90.828,140.266-98.859
		l0,0c9.188-8.438,9.094-20.672,0.641-29.875c-8.438-9.203-24.172-7.25-34.688,0.531c-9.625,8.016-75.359,51.219-75.359,51.219
		H234.57l-0.25,0.125c-4.203-0.141-7.5-3.672-7.375-7.875c0.156-4.203,3.688-7.5,7.875-7.359L234.57,374.46z" style="fill: rgb(237, 241, 246);"></path>
</g>
</svg>
